<?xml version="1.0" encoding="utf-8"?>
<!-- Generator: Adobe Illustrator 15.1.0, SVG Export Plug-In . SVG Version: 6.00 Build 0)  -->
<!DOCTYPE svg PUBLIC "-//W3C//DTD SVG 1.1//EN" "http://www.w3.org/Graphics/SVG/1.1/DTD/svg11.dtd">
<svg version="1.1" id="Layer_1" xmlns="http://www.w3.org/2000/svg" xmlns:xlink="http://www.w3.org/1999/xlink" x="0px" y="0px"
	 width="289px" height="60px" viewBox="0 0 489 101.5" enable-background="new 0 0 489 101.5" xml:space="preserve">
<g id="Layer_1_1_" display="none">
	
		<image display="inline" overflow="visible" enable-background="new    " width="1142" height="406" xlink:href="2CD3749.png"  transform="matrix(0.5 0 0 0.5 -23.9998 -41)">
	</image>
</g>
<path fill="none" stroke="#BB4226" stroke-width="1.8" stroke-linecap="round" stroke-linejoin="round" stroke-miterlimit="10" stroke-dasharray="0.0301,3.4" d="
	M15.902,70.799c-3.191-5.924-5.005-12.701-5.005-19.903c0-7.153,1.787-13.889,4.941-19.784"/>
<path fill="none" stroke="#BB4226" stroke-width="1.8" stroke-linecap="round" stroke-linejoin="round" stroke-miterlimit="10" stroke-dasharray="0.0301,3.4" d="
	M71.991,88.335c-5.727,2.925-12.212,4.573-19.081,4.573c-6.864,0-13.345-1.646-19.065-4.565"/>
<path fill="none" stroke="#BB4226" stroke-width="1.8" stroke-linecap="round" stroke-linejoin="round" stroke-miterlimit="10" stroke-dasharray="0.0301,3.4" d="
	M90.577,32.431c2.962,6.043,4.512,12.887,4.233,20.083c-0.276,7.207-2.355,13.92-5.784,19.725"/>
<path fill="none" stroke="#BB4226" stroke-width="1.8" stroke-linecap="round" stroke-linejoin="round" stroke-miterlimit="10" stroke-dasharray="0.0301,3.4" d="
	M33.875,13.435c5.715-2.909,12.184-4.55,19.035-4.55c6.776,0,13.181,1.604,18.849,4.455"/>
<g>
	<path fill="#BB4226" d="M66.239,37.338c0.879,0,1.593,0.708,1.593,1.59v18.718c0,0.877-0.714,1.592-1.593,1.592H39.56
		c-0.879,0-1.592-0.715-1.592-1.592V38.928c0-0.882,0.713-1.59,1.592-1.59H66.239 M66.239,35.138H39.56
		c-2.091,0-3.792,1.7-3.792,3.79v18.718c0,2.09,1.701,3.791,3.792,3.791h26.679c2.092,0,3.792-1.701,3.792-3.791V38.928
		C70.031,36.838,68.33,35.138,66.239,35.138L66.239,35.138z"/>
	<g>
		<path fill="#BB4226" d="M68.164,68.381H37.552c-1.21,0-2.194-0.972-2.194-2.167c0-1.194,0.984-2.165,2.194-2.165h30.611
			c1.21,0,2.193,0.971,2.193,2.165C70.358,67.409,69.374,68.381,68.164,68.381z"/>
	</g>
</g>
<line fill="none" stroke="#BB4226" stroke-width="1.8" stroke-linecap="round" stroke-linejoin="round" stroke-miterlimit="10" stroke-dasharray="0.0301,3.4" x1="34.577" y1="33.004" x2="31.293" y2="29.719"/>
<line fill="none" stroke="#BB4226" stroke-width="1.8" stroke-linecap="round" stroke-linejoin="round" stroke-miterlimit="10" stroke-dasharray="0.0301,3.4" x1="70.799" y1="32.563" x2="74.084" y2="29.28"/>
<line fill="none" stroke="#BB4226" stroke-width="1.8" stroke-linecap="round" stroke-linejoin="round" stroke-miterlimit="10" stroke-dasharray="0.0301,3.4" x1="72.24" y1="69.786" x2="75.523" y2="73.07"/>
<line fill="none" stroke="#BB4226" stroke-width="1.8" stroke-linecap="round" stroke-linejoin="round" stroke-miterlimit="10" stroke-dasharray="0.0301,3.4" x1="34.017" y1="70.227" x2="30.732" y2="73.51"/>
<g>
	<path fill="#BB4226" d="M27.868,7.932c0.535,0,0.972,0.434,0.972,0.971v11.424c0,0.535-0.437,0.97-0.972,0.97H11.59
		c-0.537,0-0.972-0.435-0.972-0.97V8.902c0-0.537,0.435-0.971,0.972-0.971L27.868,7.932 M27.868,6.132H11.59
		c-1.528,0-2.771,1.243-2.771,2.771v11.424c0,1.527,1.243,2.77,2.771,2.77h16.277c1.527,0,2.771-1.242,2.771-2.77V8.902
		C30.639,7.375,29.396,6.132,27.868,6.132L27.868,6.132z"/>
	<g>
		<path fill="#BB4226" d="M29.543,27.648H9.864c-0.674,0-1.223-0.54-1.223-1.204c0-0.666,0.549-1.207,1.223-1.207h19.681
			c0.675,0,1.224,0.541,1.224,1.207C30.767,27.108,30.218,27.648,29.543,27.648z"/>
	</g>
</g>
<g>
	<path fill="#BB4226" d="M94.336,7.932c0.536,0,0.972,0.434,0.972,0.971v11.424c0,0.535-0.436,0.97-0.972,0.97H78.059
		c-0.537,0-0.972-0.435-0.972-0.97V8.902c0-0.537,0.435-0.971,0.972-0.971L94.336,7.932 M94.336,6.132H78.059
		c-1.528,0-2.771,1.243-2.771,2.771v11.424c0,1.527,1.242,2.77,2.771,2.77h16.277c1.527,0,2.771-1.242,2.771-2.77V8.902
		C97.108,7.375,95.865,6.132,94.336,6.132L94.336,6.132z"/>
	<g>
		<path fill="#BB4226" d="M96.012,27.648h-19.68c-0.674,0-1.224-0.54-1.224-1.204c0-0.666,0.55-1.207,1.224-1.207h19.68
			c0.675,0,1.224,0.541,1.224,1.207C97.236,27.108,96.687,27.648,96.012,27.648z"/>
	</g>
</g>
<g>
	<path fill="#BB4226" d="M27.868,76.344c0.535,0,0.972,0.434,0.972,0.971v11.425c0,0.534-0.437,0.97-0.972,0.97H11.59
		c-0.537,0-0.972-0.436-0.972-0.97V77.314c0-0.537,0.435-0.972,0.972-0.972L27.868,76.344 M27.868,74.544H11.59
		c-1.528,0-2.771,1.243-2.771,2.771v11.425c0,1.526,1.243,2.77,2.771,2.77h16.277c1.527,0,2.771-1.241,2.771-2.77V77.314
		C30.639,75.787,29.396,74.544,27.868,74.544L27.868,74.544z"/>
	<g>
		<path fill="#BB4226" d="M29.543,96.061H9.864c-0.674,0-1.223-0.539-1.223-1.203c0-0.666,0.549-1.207,1.223-1.207h19.681
			c0.675,0,1.224,0.541,1.224,1.207C30.767,95.521,30.218,96.061,29.543,96.061z"/>
	</g>
</g>
<g>
	<path fill="#BB4226" d="M94.336,76.344c0.536,0,0.972,0.434,0.972,0.971v11.425c0,0.534-0.436,0.97-0.972,0.97H78.059
		c-0.537,0-0.972-0.436-0.972-0.97V77.314c0-0.537,0.435-0.972,0.972-0.972L94.336,76.344 M94.336,74.544H78.059
		c-1.528,0-2.771,1.243-2.771,2.771v11.425c0,1.526,1.242,2.77,2.771,2.77h16.277c1.527,0,2.771-1.241,2.771-2.77V77.314
		C97.108,75.787,95.865,74.544,94.336,74.544L94.336,74.544z"/>
	<g>
		<path fill="#BB4226" d="M96.012,96.061h-19.68c-0.674,0-1.224-0.539-1.224-1.203c0-0.666,0.55-1.207,1.224-1.207h19.68
			c0.675,0,1.224,0.541,1.224,1.207C97.236,95.521,96.687,96.061,96.012,96.061z"/>
	</g>
</g>
<polygon fill="#BB4226" points="49.418,14.791 48.145,13.518 52.774,8.891 48.134,4.252 49.408,2.979 55.319,8.891 "/>
<polygon fill="#BB4226" points="94.915,53.807 89.014,47.906 90.288,46.633 94.915,51.262 99.553,46.622 100.827,47.896 "/>
<polygon fill="#BB4226" points="56.51,98.814 50.599,92.902 56.5,87.002 57.773,88.275 53.144,92.902 57.784,97.541 "/>
<polygon fill="#BB4226" points="6.264,56.671 4.991,55.396 10.903,49.486 16.803,55.387 15.53,56.66 10.903,52.031 "/>
<g>
	<path fill="#BB4226" d="M162.062,61.563c0,3.896-1.413,6.933-4.237,9.111c-2.826,2.18-6.66,3.27-11.505,3.27
		c-5.248,0-9.283-0.676-12.108-2.027v-4.965c1.815,0.768,3.794,1.373,5.934,1.816s4.258,0.666,6.357,0.666
		c3.431,0,6.014-0.651,7.75-1.953c1.734-1.303,2.604-3.112,2.604-5.435c0-1.532-0.308-2.79-0.923-3.769
		c-0.616-0.979-1.645-1.883-3.088-2.709c-1.443-0.827-3.638-1.767-6.584-2.815c-4.117-1.474-7.059-3.219-8.825-5.237
		c-1.766-2.018-2.648-4.652-2.648-7.901c0-3.411,1.28-6.125,3.845-8.144c2.563-2.018,5.954-3.027,10.172-3.027
		c4.399,0,8.446,0.808,12.14,2.422l-1.604,4.48c-3.653-1.534-7.205-2.301-10.656-2.301c-2.725,0-4.854,0.585-6.388,1.756
		c-1.534,1.171-2.301,2.795-2.301,4.874c0,1.534,0.281,2.791,0.848,3.769c0.565,0.979,1.519,1.877,2.861,2.694
		c1.342,0.817,3.396,1.721,6.161,2.709c4.642,1.655,7.835,3.43,9.581,5.328C161.188,56.073,162.062,58.535,162.062,61.563z"/>
	<path fill="#BB4226" d="M184.736,73.339h-5.146V33.65h-14.018v-4.571h33.181v4.571h-14.018V73.339z"/>
	<path fill="#BB4226" d="M233.234,73.339l-5.51-14.077h-17.74l-5.448,14.077h-5.207l17.498-44.441h4.328l17.407,44.441H233.234z
		 M226.12,54.63l-5.146-13.714c-0.666-1.735-1.353-3.865-2.059-6.388c-0.444,1.938-1.08,4.067-1.907,6.388l-5.207,13.714H226.12z"/>
	<path fill="#BB4226" d="M279.22,73.339h-5.873l-24.188-37.146h-0.242c0.323,4.359,0.483,8.355,0.483,11.988v25.157h-4.753v-44.26
		h5.813l24.128,36.994h0.242c-0.041-0.545-0.133-2.297-0.272-5.252c-0.142-2.957-0.191-5.071-0.151-6.344V29.079h4.813V73.339
		L279.22,73.339z"/>
	<path fill="#BB4226" d="M326.719,50.785c0,7.306-1.982,12.892-5.949,16.757c-3.965,3.864-9.672,5.797-17.119,5.797H291.39v-44.26
		h13.562c6.883,0,12.23,1.907,16.045,5.722C324.812,38.616,326.719,43.943,326.719,50.785z M321.27,50.967
		c0-5.772-1.448-10.121-4.344-13.048c-2.896-2.926-7.201-4.39-12.912-4.39h-7.478v35.36h6.267c6.135,0,10.747-1.51,13.835-4.527
		C319.726,61.346,321.27,56.88,321.27,50.967z"/>
	<path fill="#BB4226" d="M364.408,73.339l-5.51-14.077h-17.74l-5.448,14.077h-5.207L348,28.898h4.329l17.407,44.441H364.408z
		 M357.295,54.63l-5.146-13.714c-0.666-1.735-1.353-3.865-2.059-6.388c-0.444,1.938-1.08,4.067-1.907,6.388l-5.207,13.714H357.295z"
		/>
	<path fill="#BB4226" d="M380.969,54.934v18.405h-5.146v-44.26h12.141c5.429,0,9.439,1.04,12.032,3.118
		c2.595,2.079,3.892,5.207,3.892,9.385c0,5.853-2.967,9.809-8.9,11.867l12.02,19.89h-6.085l-10.718-18.405H380.969L380.969,54.934z
		 M380.969,50.513h7.054c3.633,0,6.297-0.721,7.992-2.165c1.695-1.443,2.543-3.607,2.543-6.494c0-2.926-0.863-5.035-2.588-6.327
		c-1.728-1.292-4.496-1.938-8.312-1.938h-6.689V50.513L380.969,50.513z"/>
	<path fill="#BB4226" d="M449.478,50.785c0,7.306-1.982,12.892-5.949,16.757c-3.965,3.864-9.672,5.797-17.119,5.797h-12.261v-44.26
		h13.563c6.882,0,12.229,1.907,16.045,5.722C447.571,38.616,449.478,43.943,449.478,50.785z M444.028,50.967
		c0-5.772-1.448-10.121-4.344-13.048c-2.896-2.926-7.201-4.39-12.912-4.39h-7.478v35.36h6.267c6.135,0,10.747-1.51,13.835-4.527
		C442.484,61.346,444.028,56.88,444.028,50.967z"/>
	<path fill="#BB4226" d="M484.322,61.563c0,3.896-1.413,6.933-4.237,9.111c-2.826,2.18-6.66,3.27-11.505,3.27
		c-5.248,0-9.283-0.676-12.108-2.027v-4.965c1.815,0.768,3.794,1.373,5.934,1.816s4.258,0.666,6.357,0.666
		c3.431,0,6.014-0.651,7.75-1.953c1.734-1.303,2.604-3.112,2.604-5.435c0-1.532-0.308-2.79-0.924-3.769
		c-0.615-0.979-1.645-1.883-3.088-2.709c-1.442-0.827-3.638-1.767-6.584-2.815c-4.117-1.474-7.059-3.219-8.824-5.237
		c-1.767-2.018-2.648-4.652-2.648-7.901c0-3.411,1.28-6.125,3.845-8.144c2.562-2.018,5.953-3.027,10.172-3.027
		c4.399,0,8.446,0.808,12.14,2.422l-1.604,4.48c-3.653-1.534-7.205-2.301-10.656-2.301c-2.725,0-4.854,0.585-6.388,1.756
		c-1.534,1.171-2.301,2.795-2.301,4.874c0,1.534,0.281,2.791,0.848,3.769c0.563,0.979,1.519,1.877,2.86,2.694
		c1.343,0.817,3.396,1.721,6.16,2.709c4.643,1.655,7.836,3.43,9.581,5.328C483.448,56.073,484.322,58.535,484.322,61.563z"/>
</g>
</svg>
